<svg version="1.2" baseProfile="tiny-ps" xmlns="http://www.w3.org/2000/svg" viewBox="0 0 30 30" width="30" height="30">
	<title>Group 1</title>
	<style>
		tspan { white-space:pre }
		.shp0 { fill: #54524f } 
	</style>
	<g id="Group 1">
		<g id="Design">
			<path id="Search" class="shp0" d="M20.9 17.8C24.57 12.72 23.34 5.67 18.16 2.07C12.97 -1.53 5.79 -0.32 2.12 4.76C-1.56 9.85 -0.33 16.89 4.86 20.49C8.56 23.06 13.46 23.26 17.36 21L25.85 29.26C26.76 30.21 28.29 30.25 29.25 29.35C30.21 28.45 30.25 26.96 29.34 26.01C29.31 25.98 29.28 25.96 29.25 25.93L20.9 17.8ZM11.5 18.57C7.4 18.57 4.08 15.32 4.08 11.3C4.08 7.28 7.4 4.02 11.5 4.02C15.59 4.02 18.91 7.27 18.92 11.28C18.93 15.3 15.61 18.57 11.51 18.57C11.5 18.57 11.5 18.57 11.5 18.57Z" />
		</g>
	</g>
</svg>